<svg width="13" height="13" viewBox="0 0 13 13" fill="none" xmlns="http://www.w3.org/2000/svg">
<path d="M5.17333 2.48391L9.88667 7.19791L5.10467 11.9806C4.88332 12.2019 4.59115 12.3383 4.27933 12.3659L4.162 12.3706H0.673333C0.507451 12.3706 0.347405 12.3093 0.223886 12.1986C0.100366 12.0879 0.0220664 11.9355 0.00400003 11.7706L0 11.6972V8.20858C7.64874e-05 7.89554 0.110289 7.59252 0.311333 7.35258L0.391333 7.26591L5.17333 2.48391ZM7.26667 0.390577C7.50261 0.154611 7.81845 0.0156911 8.15182 0.00125018C8.4852 -0.0131907 8.81187 0.097897 9.06733 0.312577L9.152 0.390577L11.9807 3.21924C12.2164 3.45515 12.3552 3.77086 12.3697 4.10407C12.3841 4.43729 12.2732 4.76382 12.0587 5.01924L11.9807 5.10458L10.83 6.25524L6.11667 1.54124L7.26667 0.390577Z" fill="#323749"/>
</svg>
