<svg width="12" height="14" viewBox="0 0 12 14" fill="none" xmlns="http://www.w3.org/2000/svg">
<path fill-rule="evenodd" clip-rule="evenodd" d="M3.21533 0.912C3.3038 0.646392 3.47362 0.415368 3.70073 0.251677C3.92784 0.0879855 4.20071 -6.73741e-05 4.48067 3.86793e-08H7.51933C7.79929 -6.73741e-05 8.07216 0.0879855 8.29927 0.251677C8.52638 0.415368 8.6962 0.646392 8.78467 0.912L9.14667 2H11.3333C11.5101 2 11.6797 2.07024 11.8047 2.19526C11.9298 2.32029 12 2.48986 12 2.66667C12 2.84348 11.9298 3.01305 11.8047 3.13807C11.6797 3.2631 11.5101 3.33333 11.3333 3.33333H10.6667V11.3333C10.6667 11.8638 10.456 12.3725 10.0809 12.7475C9.70581 13.1226 9.1971 13.3333 8.66667 13.3333H3.33333C2.8029 13.3333 2.29419 13.1226 1.91912 12.7475C1.54405 12.3725 1.33333 11.8638 1.33333 11.3333V3.33333H0.666667C0.489856 3.33333 0.320286 3.2631 0.195262 3.13807C0.0702379 3.01305 0 2.84348 0 2.66667C0 2.48986 0.0702379 2.32029 0.195262 2.19526C0.320286 2.07024 0.489856 2 0.666667 2H2.85333L3.21533 0.912ZM4.258 2L4.48067 1.33333H7.51933L7.742 2H4.258Z" fill="#323749"/>
</svg>
